<?xml version="1.0" encoding="utf-8"?><svg viewBox="0 0 40 40" xmlns="http://www.w3.org/2000/svg" xmlns:xlink="http://www.w3.org/1999/xlink"><style>:root>svg{display:none}:root>svg:target{display:block}</style><svg fill="none" viewBox="0 0 40 40" id="cart-icon" xmlns="http://www.w3.org/2000/svg"><path d="M15.705 4.52a8.5 8.5 0 018.667 0 8.442 8.442 0 014.116 7.584v.384c2.1 0 4.317 1.466 5.084 5.033l1.283 9.983c.952 6.517-2.833 9.167-7.917 9.167H13.122c-5.099 0-9-1.834-7.95-9.167l1.3-9.983a6.42 6.42 0 012.033-3.884 4.665 4.665 0 013.083-1.15v-.383a8.412 8.412 0 014.117-7.583zm9.117 13.334c-.816 0-1.484.65-1.484 1.467 0 .8.668 1.466 1.483 1.466.384 0 .767-.15 1.034-.433.283-.267.433-.65.433-1.033 0-.817-.666-1.467-1.466-1.467zm-9.667 0c-.817 0-1.483.65-1.483 1.467 0 .8.666 1.466 1.483 1.466.817 0 1.467-.666 1.467-1.466 0-.817-.65-1.467-1.467-1.467zm4.85-11.616c-3.25 0-5.883 2.633-5.883 5.866v.369h11.783v-.369c0-3.233-2.634-5.866-5.9-5.866z" fill="#fff"/></svg><svg fill="none" viewBox="0 0 40 40" id="search-icon" xmlns="http://www.w3.org/2000/svg"><path d="M34.517 32.15L28.85 26.5a13.2 13.2 0 002.817-8.167 13.334 13.334 0 10-13.334 13.334A13.2 13.2 0 0026.5 28.85l5.65 5.667a1.666 1.666 0 002.367 0 1.667 1.667 0 000-2.367zM8.333 18.333a10 10 0 1120.001 0 10 10 0 01-20 0z" fill="#fff"/></svg></svg>